<?xml version="1.0" encoding="utf-8"?>
<!-- Generator: Adobe Illustrator 24.3.0, SVG Export Plug-In . SVG Version: 6.00 Build 0)  -->
<svg version="1.1" id="Layer_1" xmlns="http://www.w3.org/2000/svg" x="0px"
	 y="0px" viewBox="0 0 64 64" style="enable-background:new 0 0 64 64;" xml:space="preserve">
<style type="text/css">
	.st0{fill:#FFFFFF;stroke:#FFFFFF;stroke-miterlimit:10;}
</style>
	<g id="Layer_2_1_">
	<path class="st0" d="M39.6,54.8c9.5-3.2,16.3-12.2,16.3-22.8C55.9,18.8,45.2,8,32,8S8.1,18.8,8.1,32c0,10.6,6.9,19.6,16.4,22.8
		c1.2,0.2,1.6-0.5,1.6-1.2c0-0.4,0-1.4,0-2.7c0-0.7-0.6-1.3-1.4-1.2c-5.5,0.6-6.7-3.4-6.7-3.4c-1.1-2.8-2.7-3.5-2.7-3.5
		c-2.2-1.5,0.2-1.5,0.2-1.5c2.4,0.2,3.7,2.5,3.7,2.5c1.8,3.2,4.7,2.8,6.3,2.3c0.4-0.1,0.7-0.5,0.8-0.9c0.1-0.4,0.2-0.8,0.4-1.1
		c0.3-0.7-0.1-1.6-0.9-1.7c-4.7-0.9-9-3.5-9-11.6c0-2.2,0.6-4,1.7-5.5c0.4-0.6,0.6-1.3,0.4-2c-0.2-0.8-0.3-2,0-3.4
		c0.2-1.3,1.6-2.1,2.8-1.7c0.9,0.3,2,0.8,3.5,1.7c0.6,0.4,1.3,0.5,1.9,0.3c1.6-0.4,3.3-0.5,4.9-0.5c1.7,0,3.3,0.2,4.9,0.5
		c0.7,0.1,1.4,0.1,1.9-0.3c1.4-0.9,2.5-1.4,3.4-1.6c1.3-0.4,2.7,0.4,2.9,1.8s0.1,2.5,0,3.3c-0.1,0.7,0,1.4,0.4,2
		c1.1,1.5,1.7,3.4,1.7,5.5c0,8.1-4.3,10.7-9,11.6c-0.8,0.1-1.2,1-0.9,1.7c0.4,0.8,0.6,1.8,0.6,3c0,3.2,0,5.8,0,6.6
		C37.9,54.3,38.4,55,39.6,54.8z"/>
</g>
</svg>
