<?xml version="1.0" encoding="utf-8"?>
<!-- Generator: Adobe Illustrator 24.3.0, SVG Export Plug-In . SVG Version: 6.00 Build 0)  -->
<svg version="1.1" id="Layer_1" xmlns="http://www.w3.org/2000/svg" x="0px"
	 y="0px" viewBox="0 0 64 64" style="enable-background:new 0 0 64 64;" xml:space="preserve">
<style type="text/css">
	.st0{fill:#FFFFFF;stroke:#FFFFFF;stroke-miterlimit:10;}
</style>
	<g id="Layer_2_1_">
	<path class="st0" d="M13,54.7c6,0.8,12.3,1.2,19,1.2s13-0.4,19-1.2c5.2-0.7,9-5.1,9-10.3V19.5c0-5.2-3.9-9.6-9-10.3
		C45,8.4,38.6,8,32,8S19,8.4,13,9.3c-5.1,0.7-9,5-9,10.2v24.9C4,49.7,7.9,54,13,54.7z M25.6,27.4c0-2.7,3-4.3,5.3-2.9l7.8,5
		c1.8,1.1,1.8,3.7,0,4.9l-7.8,5c-2.3,1.5-5.3-0.2-5.3-2.9C25.6,36.5,25.6,27.4,25.6,27.4z"/>
</g>
</svg>
