<svg xmlns="http://www.w3.org/2000/svg" xmlns:xlink="http://www.w3.org/1999/xlink" version="1.1" x="0px" y="0px"
     viewBox="0 0 64 80" style="enable-background:new 0 0 64 64;" xml:space="preserve"><style type="text/css">
	.st0{display:none;}
	.st1{display:inline;}
</style>
    <g class="st0"><rect x="-1862.8" y="-1368" class="st1" width="4344.8" height="2289.3"/></g>
    <g><path d="M62,40.8c0,7.5-6.1,13.7-13.7,13.7c-1.4,0-2.5-1.1-2.5-2.5s1.1-2.5,2.5-2.5c4.8,0,8.7-3.9,8.7-8.7c0-4-2.7-7.5-6.7-8.4   c-0.7-0.2-1.2-0.6-1.6-1.1c-0.3-0.6-0.4-1.3-0.3-1.9c0.3-1.1,0.4-2.1,0.4-3.1c0-6.9-5.6-12.4-12.4-12.4c-5.6,0-10.5,3.7-12,9.1   c-0.3,1.2-1.6,2-2.8,1.8c-0.8-0.1-1.5-0.2-2.2-0.2C12.6,24.4,7,29.9,7,36.8c0,6.9,5.6,12.4,12.4,12.4c1.4,0,2.5,1.1,2.5,2.5   s-1.1,2.5-2.5,2.5C9.8,54.2,2,46.4,2,36.8c0-9.6,7.8-17.4,17.4-17.4c0.3,0,0.6,0,0.9,0C23,13,29.4,8.7,36.4,8.7   c9.6,0,17.4,7.8,17.4,17.4c0,0.7,0,1.4-0.1,2.1C58.7,30.4,62,35.2,62,40.8z M38.9,43.5l-3,3.1v-13c0-1.4-1.1-2.5-2.5-2.5   s-2.5,1.1-2.5,2.5v12.9l-2.9-3.1c-1-1-2.5-1-3.5-0.1c-1,1-1,2.5-0.1,3.5l7.2,7.6c0.5,0.5,1.1,0.8,1.8,0.8c0,0,0,0,0,0   c0.7,0,1.3-0.3,1.8-0.8l7.3-7.6c1-1,0.9-2.6-0.1-3.5C41.4,42.5,39.8,42.5,38.9,43.5z"/></g></svg>